<?xml version="1.0" encoding="UTF-8"?>
<svg xmlns="http://www.w3.org/2000/svg" width="163" height="67" viewBox="0 0 163 67" fill="none">
  <g clip-path="url(#clip0_6320_1604)">
    <path d="M18.2249 61.023L17.5776 58.8843C16.9302 56.7641 15.0943 55.345 12.6666 55.345C11.8315 55.345 11.4923 55.6335 11.0637 56.382C10.999 56.4966 10.8825 56.382 10.8656 56.3188C10.8061 56.1277 10.7582 55.8075 10.6753 55.5387H8.52734L11.0029 63.6663H13.191L11.3589 57.6259C11.447 57.4849 11.8121 57.0672 13.0084 57.0672C14.3705 57.0672 15.1732 58.1991 15.5539 59.4588L16.0899 61.2298C16.2362 61.7055 16.1831 61.803 15.9074 61.9783C15.3364 62.3617 14.3835 61.9783 13.6662 61.7253L14.1841 63.4278C14.1841 63.4278 14.7602 63.6518 14.9933 63.7163C16.1236 63.9799 17.3601 63.8481 17.9919 63.1734C18.5901 62.5515 18.3738 61.5158 18.2249 61.023Z" fill="#212529"></path>
    <path d="M23.2374 53.9941H20.991L20.9742 57.2265H22.7868L23.2374 53.9941ZM20.2879 53.9941H18.0416L18.0234 57.2265H19.8438L20.2879 53.9941Z" fill="#212529"></path>
    <path d="M33.3641 59.9344L32.0279 55.5359H29.8346L31.1695 59.9344C31.4155 60.75 31.3663 61.5604 30.9494 62.0229C30.9494 62.0229 27.1947 56.3647 26.7014 55.5359H24.3242L29.5032 63.1087C29.5032 63.1087 29.3077 63.2194 29.1924 63.2669C28.8562 63.4423 28.5001 63.5751 28.1321 63.6622C27.7436 63.7768 27.0963 63.8849 27.0963 63.8849L27.9404 65.6401C31.154 65.0958 34.3947 63.3591 33.355 59.9317" fill="#212529"></path>
    <path d="M44.4872 63.6676L43.9693 61.9546H42.725L41.7617 58.7815C41.0911 56.5652 39.6241 55.3555 37.0359 55.3555C36.0252 55.3448 35.034 55.6392 34.1875 56.2015L34.9255 58.1464C35.7308 57.3558 36.5038 57.0777 37.3065 57.0777C38.6324 57.0777 39.1917 57.5732 39.5503 58.7512L40.5227 61.9572H35.6557L36.1736 63.6702L44.4872 63.6676Z" fill="#212529"></path>
    <path d="M57.7853 63.6675L56.3326 58.8803C55.6697 56.6982 53.5878 55.3423 51.7014 55.3423C50.7666 55.3423 50.0583 55.4872 49.5624 55.8536L49.4628 55.5202H47.2578L49.7295 63.6636L57.7853 63.6675ZM55.0664 61.9545H51.41L50.0881 57.6061C50.1839 57.4743 50.5361 57.079 51.814 57.079C52.8161 57.079 53.7975 57.7813 54.3103 59.4693L55.0664 61.9545Z" fill="#212529"></path>
    <path d="M61.1814 60.1782L59.7753 55.5386H57.5781L59.1694 60.7844L61.1814 60.1782Z" fill="#212529"></path>
    <path d="M72.3166 63.6676L71.7987 61.9545H70.5518L69.5886 58.7815C68.9179 56.5651 67.4522 55.3555 64.8641 55.3555C63.8533 55.3451 62.8622 55.6395 62.0156 56.2015L62.7523 58.1464C63.5615 57.3558 64.3319 57.0777 65.1334 57.0777C66.4631 57.0777 67.0211 57.5732 67.3797 58.7512L68.3521 61.9572H63.4839L64.0018 63.6702L72.3166 63.6676Z" fill="#212529"></path>
    <path d="M82.3437 60.3205L80.8935 55.5373H78.6925L79.9665 59.746C80.3705 61.0637 79.5781 62.1363 78.1034 62.1363C77.4469 62.1238 76.8059 61.9306 76.2486 61.5773C75.6912 61.224 75.2382 60.7237 74.9377 60.1295C75.4313 60.348 75.9664 60.452 76.5044 60.4339C77.8315 60.4339 78.2937 59.1412 77.9985 58.1674L77.1997 55.532H74.9986L75.7573 58.0356C75.8777 58.4309 75.6395 58.7235 75.1786 58.7235C74.4237 58.7235 74.2166 57.8775 74.0819 57.4308L73.5057 55.5333H71.3047L72.7535 60.3166C73.4565 62.6291 76.2493 63.8546 78.4348 63.8546H78.7961C80.9764 63.8546 83.0299 62.6291 82.3281 60.3166" fill="#212529"></path>
    <path d="M93.3754 63.6675L91.8917 58.7749C91.2132 56.5427 89.2426 55.3489 86.67 55.3489C85.5565 55.3489 84.188 55.6533 83.3516 56.1948L85.6238 63.6702H87.8249L85.853 57.1818C86.2158 57.1109 86.5841 57.0738 86.9535 57.0711C88.3117 57.0711 89.341 57.5982 89.6893 58.7446L91.1847 63.6702L93.3754 63.6675Z" fill="#212529"></path>
    <path d="M102.7 61.023L102.053 58.8843C101.405 56.7641 99.5669 55.345 97.1432 55.345C96.3068 55.345 95.965 55.6335 95.5377 56.382C95.4743 56.4966 95.359 56.382 95.3383 56.3188C95.2801 56.1277 95.2322 55.8075 95.1493 55.5387H93.0039L95.4639 63.6663H97.665L95.8329 57.6259C95.9223 57.4849 96.2874 57.0672 97.4824 57.0672C98.8432 57.0672 99.6472 58.1991 100.029 59.4588L100.566 61.2298C100.71 61.7055 100.657 61.803 100.384 61.9783C99.809 62.3617 98.8587 61.9783 98.1427 61.7253L98.6606 63.4278C98.6606 63.4278 99.2368 63.6518 99.4698 63.7163C100.6 63.9799 101.837 63.8481 102.47 63.1734C103.065 62.5515 102.849 61.5158 102.7 61.023Z" fill="#212529"></path>
    <path d="M117.569 63.6676L116.083 58.7749C115.41 56.5585 113.944 55.3489 111.356 55.3489C109.521 55.3489 108.128 55.6203 107.293 56.1645L107.905 58.1859C108.368 57.7089 108.435 57.6588 108.553 57.6127L109.476 60.6579C109.77 61.6146 109.513 61.9638 109.106 61.9638C108.777 61.9598 108.45 61.9285 108.127 61.8702L108.597 63.6399C109.036 63.7278 109.483 63.772 109.93 63.7717C112.487 63.7717 111.981 61.6633 111.614 60.455L110.602 57.1225C110.936 57.0909 111.29 57.0751 111.638 57.0751C112.95 57.0751 113.525 57.5705 113.883 58.7486L115.379 63.6741L117.569 63.6676Z" fill="#212529"></path>
    <path d="M126.309 63.6675L124.825 58.7749C124.152 56.5585 122.688 55.3489 120.098 55.3489C118.981 55.3489 117.598 55.6533 116.766 56.1948L117.484 58.1398C118.28 57.3597 119.538 57.0711 120.373 57.0711C121.704 57.0711 122.259 57.5666 122.618 58.7446L124.113 63.6702L126.309 63.6675Z" fill="#212529"></path>
    <path d="M130.761 63.6676L128.294 55.54H126.098L128.565 63.6676H130.761Z" fill="#212529"></path>
    <path d="M141.575 60.3205L140.124 55.5373H137.923L139.198 59.746C139.601 61.0637 138.81 62.1363 137.334 62.1363C136.677 62.1232 136.037 61.9298 135.479 61.5766C134.922 61.2233 134.469 60.7233 134.168 60.1295C134.662 60.3475 135.197 60.4515 135.735 60.4339C137.065 60.4339 137.524 59.1412 137.228 58.1674L136.43 55.532H134.229L134.988 58.0356C135.109 58.4309 134.869 58.7235 134.409 58.7235C133.655 58.7235 133.45 57.8775 133.312 57.4308L132.74 55.5333H130.539L131.99 60.3166C132.692 62.6291 135.486 63.8546 137.67 63.8546H138.03C140.211 63.8546 142.264 62.6291 141.562 60.3166" fill="#212529"></path>
    <path d="M151.019 58.2321C150.76 56.9144 149.052 55.54 147.021 55.54H141.938L142.471 57.2913H147.552C147.928 57.2913 148.659 57.423 148.871 58.5036L149.209 60.21C149.327 60.8135 149.325 61.5646 148.769 61.898C148.458 62.1062 147.649 62.0904 147.286 62.0904L147.82 63.8442C148.905 63.8442 150.087 63.8126 150.821 63.0944C151.626 62.3038 151.546 60.9426 151.398 60.1955L151.019 58.2321ZM147.809 67.0001L145.169 58.2954L143.173 58.9542L145.615 67.0041L147.809 67.0001Z" fill="#212529"></path>
    <path d="M163.006 63.6675L161.519 58.7749C160.847 56.5585 159.38 55.3489 156.791 55.3489C154.956 55.3489 153.564 55.6203 152.727 56.1645L153.34 58.1859C153.804 57.7089 153.869 57.6588 153.988 57.6127L154.912 60.6579C155.201 61.6146 154.946 61.9638 154.539 61.9638C154.21 61.9596 153.882 61.9283 153.558 61.8702L154.029 63.6399C154.468 63.7278 154.915 63.7719 155.363 63.7716C157.921 63.7716 157.415 61.6633 157.046 60.455L156.036 57.1225C156.367 57.0909 156.725 57.0751 157.072 57.0751C158.383 57.0751 158.956 57.5705 159.314 58.7486L160.81 63.6741L163.006 63.6675Z" fill="#212529"></path>
    <path d="M91.0782 0.0012207L98.0361 23.2745L88.7295 23.2719L81.6719 0.0012207H91.0782Z" fill="#C02D19"></path>
    <path d="M91.8125 48.1332C96.1641 47.2595 94.9199 43.6635 94.9199 43.6635L93.6187 39.3599L155.533 39.3428C155.588 39.7237 155.616 40.1081 155.616 40.4931C155.616 42.5201 154.825 44.464 153.417 45.8973C152.008 47.3306 150.098 48.1358 148.107 48.1358L91.8125 48.1332Z" fill="#C02D19"></path>
    <path d="M89.8322 42.0017C90.5573 46.1499 88.509 47.7535 84.0512 48.1317H6.20234L3.53906 39.3584H79.2814L67.3244 0.0012207H77.3535L89.6043 40.323C89.7519 40.8501 89.7338 41.4272 89.8309 41.9978" fill="#C02D19"></path>
    <path d="M0 27.7062H29.9771L24.6687 10.2268L24.4732 9.57853C24.1826 8.44812 24.1505 7.26495 24.3795 6.11996C24.6085 4.97497 25.0924 3.89865 25.794 2.97375C26.4956 2.04884 27.3962 1.29997 28.4266 0.784705C29.4571 0.269437 30.5899 0.00149455 31.738 0.00146484H58.7022C59.9294 0.0265578 61.1199 0.432055 62.1147 1.16383C63.1095 1.89561 63.8612 2.91884 64.2696 4.09689L64.3991 4.50273L73.9802 35.7666H64.1829L57.5551 12.8188C55.9146 8.54413 56.6099 8.55205 51.932 8.55205H33.7474L39.9039 28.618C41.4576 34.4937 37.7223 35.7692 33.908 35.7692H2.44577L0 27.7062Z" fill="#C02D19"></path>
    <path d="M92.5238 35.7349L89.8398 26.8905H126.174L121.632 12.2811C120.347 8.83533 120.609 8.48219 117.427 8.44793L100.817 8.4387L98.2557 0.00538998H123.389C124.674 -0.00668849 125.93 0.397514 126.974 1.15954C128.019 1.92156 128.798 3.00193 129.2 4.24445L136.16 26.8958L151.76 26.909L154.434 35.7376L92.5238 35.7349Z" fill="#C02D19"></path>
  </g>
  <defs>
    <clipPath id="clip0_6320_1604">
      <rect width="163" height="67" fill="white"></rect>
    </clipPath>
  </defs>
</svg>
